<svg id="Layer_1" enable-background="new 0 0 512 512" height="512"  viewBox="0 0 512 512" width="512" xmlns="http://www.w3.org/2000/svg"><path d="m452 25.5h-392c-33.084 0-60 26.916-60 60v261c0 33.084 26.916 60 60 60h176v40h-104v40h248v-40h-104v-40h176c33.084 0 60-26.916 60-60v-261c0-33.084-26.916-60-60-60zm20 321c0 11.028-8.972 20-20 20h-392c-11.028 0-20-8.972-20-20v-261c0-11.028 8.972-20 20-20h392c11.028 0 20 8.972 20 20zm-196-131c0 11.046-8.954 20-20 20s-20-8.954-20-20 8.954-20 20-20 20 8.954 20 20zm-160 .863c0 37.396 14.562 72.552 41.005 98.994l-28.284 28.285c-33.998-33.997-52.721-79.199-52.721-127.279s18.723-93.282 52.721-127.279l28.284 28.283c-26.443 26.444-41.005 61.601-41.005 98.996zm267.279-127.28c33.997 33.998 52.721 79.2 52.721 127.28s-18.724 93.281-52.722 127.279l-28.283-28.285c26.443-26.442 41.005-61.598 41.005-98.994s-14.562-72.553-41.006-98.995zm-56.568 197.991-28.285-28.285c23.395-23.394 23.395-61.459 0-84.853l28.285-28.285c38.989 38.991 38.989 102.433 0 141.423zm-113.137-113.137c-23.394 23.394-23.394 61.459 0 84.853l-28.284 28.285c-38.99-38.99-38.99-102.433 0-141.423z"/></svg>