<svg height="512" viewBox="0 0 58 58" width="512" xmlns="http://www.w3.org/2000/svg"><g id="015---Pizza" fill="none"><path id="Shape" d="m55.32 8.43c-8.55-8.55-12.93-6.43-12.93-6.43-3.24-3.23-8.26-1.79-11.26-.48-1.3579647.61005348-2.9120353.61005348-4.27 0-.9491456-.4788418-2.039078-.59955091-3.07-.34-1.442516.28864869-2.8298795.80511248-4.11 1.53-1.4055087.75052111-3.0707255.84201653-4.55.25-.8473288-.33228751-1.7772648-.39171951-2.66-.17-2.48125495.22660915-4.78854268 1.37133769-6.47 3.21-1.84754848 1.67413748-3.00307497 3.97805757-3.24 6.46-.22171951.8827352-.16228751 1.8126712.17 2.66.59201653 1.4792745.50052111 3.1444913-.25 4.55-.72488752 1.2801205-1.24135131 2.667484-1.53 4.11-.25955091 1.030922-.1388418 2.1208544.34 3.07.61005348 1.3579647.61005348 2.9120353 0 4.27-1.31 3-2.75 8 .48 11.26 0 0-2.08 4.38 6.47 12.93 3.24 3.23 6.47 3.23 8.09 1.62 4-4-4-8.89.8-15.36 1.3-1.51 4-4.37 7.5-5.39.2119256.1701163.4899609.2340859.7549221.1736904.2649611-.0603956.4878093-.2385372.6050779-.4836904.3640467-1.1527265.9220486-2.2349119 1.65-3.2l4.85-4.85c.9650881-.7279514 2.0472735-1.2859533 3.2-1.65.2451532-.1172686.4232948-.3401168.4836904-.6050779.0603955-.2649612-.0035741-.5429965-.1736904-.7549221 1-3.49 3.88-6.2 5.39-7.5 6.47-4.85 11.32 3.24 15.36-.8 1.6-1.61 1.6-4.84-1.63-8.08z" fill="#e57e25"/><path id="Shape" d="m27.83 32.68c-.7279514.9650881-1.2859533 2.0472735-1.65 3.2-.1227899.2582582-.362196.4417848-.6434825.4932879-.2812865.0515032-.5701879-.035291-.7765175-.2332879-8.15-7.75-23.6-12.35-23.6-12.35.28864869-1.442516.80511248-2.8298795 1.53-4.11.75052111-1.4055087.84201653-3.0707255.25-4.55-.33228751-.8473288-.39171951-1.7772648-.17-2.66 0 0 5.66.81 25.06 20.21z" fill="#fac176"/><path id="Shape" d="m24.82 36.19c-3.49 1-6.2 3.88-7.5 5.39-.6688694.7040489-1.5577482 1.1590702-2.52 1.29-4.2403374.905283-8.63937273.7403192-12.8-.48-3.23-3.24-1.79-8.26-.48-11.26.61005348-1.3579647.61005348-2.9120353 0-4.27-.4788418-.9491456-.59955091-2.039078-.34-3.07 0 0 15.45 4.6 23.6 12.35z" fill="#f29c1f"/><path id="Shape" d="m5.44 33c-.33378588.0189161-.6549447-.1302211-.85585888-.3974369-.20091419-.2672159-.25500277-.6171578-.14414112-.9325631.22305425-.6464885.36415514-1.3183975.42-2 .03706075-.2645483.17842685-.5032715.39258213-.6629487s.48329527-.227033.74741787-.1870513c.54939027.0527177.95219575.5405599.9 1.09-.0740559.824845-.24868486 1.6375413-.52 2.42-.1397915.3998911-.51638257.6683124-.94.67z" fill="#f9eab0"/><path id="Shape" d="m4.32 39.88c-1.42 0-1.43-2.65-1.19-4.05.09388841-.5522847.61771525-.9238884 1.17-.83s.92388841.6177153.83 1.17c-.18650885.7551292-.14474611 1.5486211.12 2.28.14981769.3142221.12544686.6837441-.06434098.9755685-.18978784.2918243-.51767883.4639521-.86565902.4544315z" fill="#f9eab0"/><path id="Shape" d="m32.68 27.83c-2.9 2.92-1.79 1.8-4.85 4.85-19.4-19.4-25.06-20.21-25.06-20.21.23187688-2.48407955 1.38393681-4.79176616 3.23-6.47 1.67413748-1.84754848 3.97805757-3.00307497 6.46-3.24 0 0 .82 5.67 20.22 25.07z" fill="#f29c1f"/><path id="Shape" d="m35.88 26.18c-1.1527265.3640467-2.2349119.9220486-3.2 1.65-19.4-19.4-20.21-25.06-20.21-25.06.8827352-.22171951 1.8126712-.16228751 2.66.17 1.4792745.59201653 3.1444913.50052111 4.55-.25 1.2801205-.72488752 2.667484-1.24135131 4.11-1.53 0 0 4.6 15.46 12.35 23.6.1937246.208137.2776977.4955801.2264864.7752722-.0512112.2796921-.2315829.518734-.4864864.6447278z" fill="#fac176"/><path id="Shape" d="m19.49 8c-.3572656.0446582-.7112175-.10467485-.9285254-.39174682-.2173079-.28707198-.2649577-.66826983-.125-1 .1399577-.33173018.4462598-.56359498.8035254-.60825318.5816768-.14689991 1.1451586-.3582056 1.68-.63.3199237-.20677417.7295377-.21382835 1.0563914-.01819267.3268538.19563569.5141712.55997839.4830903.93963701-.031081.37965863-.2751615.70868468-.6294817.84855566-.7312138.4051196-1.5204682.69518745-2.34.86z" fill="#f9eab0"/><path id="Shape" d="m42.87 14.8c-.1309298.9622518-.5859511 1.8511306-1.29 2.52-1.51 1.3-4.37 4-5.39 7.5v-.06c-7.75-8.14-12.35-23.6-12.35-23.6 1.030922-.25955091 2.1208544-.1388418 3.07.34 1.3579647.61005348 2.9120353.61005348 4.27 0 3-1.31 8-2.75 11.26.48 1.2071265 4.17109513 1.3549196 8.5773932.43 12.82z" fill="#f29c1f"/></g></svg>