<svg id="Capa_1" enable-background="new 0 0 490.319 490.319" height="512" viewBox="0 0 490.319 490.319" width="512" xmlns="http://www.w3.org/2000/svg"><g><path d="m26.696 335.115 40.611 46.368c3.58-10.013 8.771-21.179 15.435-33.243l269.22-267.52c11.146-5.969 21.483-10.634 30.789-13.866l-38.822-44.326c-19.12 8.737-39.311 19.884-60.076 33.222l-135.657 95.463-91.584 131.306c-11.671 18.067-21.689 35.706-29.916 52.596z" fill="#fee97d"/><path d="m431.663 250.509-54.081-121.369v-29.889c-16.267-13.794-34.787-24.966-54.928-32.858l-7.426 3.823-59.508-9.534-3.708-7.592c-107.93 0-195.43 88.39-195.43 197.42 0 .442.012.881.015 1.322l7.35 2.892 11.991 51.579-5.596 16.927-.052.024c7.978 20.312 19.19 38.973 33.003 55.326l31.287-1.893 130.755 50.02-2.492 20.914c99.092-5.481 178.54-85.676 184.273-185.699z" fill="#fdb97e"/><path d="m377.582 99.239c-76.5 102.83-167.57 195.79-273.42 278.59l-.88.75 31.298-1.894 130.755 50.02-2.493 20.924 5.78-3.61c76.35-52.09 136.24-112.68 178.36-181.85l.134-.249c.21-3.77.326-7.581.326-11.411 0-60.73-27.15-115.06-69.86-151.27z" fill="#feca9c"/><g><g><g id="XMLID_246_"><g><path d="m252.012 53.089c24.91 0 48.74 4.71 70.65 13.3v.01c-71.65 94.09-155.7 179.78-252.32 256.83l-.07.03c-8.68-22.12-13.52-46.21-13.68-71.43 72.63-61.13 137.74-127.4 195.42-198.74z" fill="#feca9c"/></g></g></g><g fill="#fee97d"><path d="m26.704 335.099c-.003.005-.005.01-.008.015l.001.001c.003-.005.005-.01.008-.016z"/><path d="m67.308 381.481-.001.001z"/></g></g><path d="m70.272 323.259c7.975 20.314 19.198 38.967 33.01 55.32l21.526-4.347 134.404 61.423 3.63 11.974c47.612-2.628 90.602-22.48 123.145-53.484-14.455 3.443-29.447 5.279-44.943 5.279-107.93 0-195.43-88.38-195.43-197.42 0-56.607 23.614-107.656 61.401-143.654-86.228 20.54-150.433 98.782-150.433 192.159 0 .442.007.879.01 1.32l7.355 2.894 11.991 51.579-5.596 16.927z" fill="#fea95c"/><path d="m180.283 314.27c-24.465 21.809-49.836 42.998-76.121 63.559l-.88.75c35.84 42.44 89.18 69.35 148.73 69.35 3.63 0 7.24-.1 10.83-.3l5.78-3.61c21.057-14.366 40.854-29.382 59.379-45.042-61.238-4.077-114.763-36.641-147.718-84.707z" fill="#fdb97e"/><path d="m474.342 15.969c-24.24-24.247-72.383-19.941-130.403 6.57l38.812 44.314h-.001c20.457-7.106 35.928-7.285 44.052.846 26.05 26.04-33.22 127.55-132.39 226.71-99.16 99.17-200.67 158.44-226.71 132.39-8.298-8.291-7.932-24.238-.395-45.317l-40.61-46.366c-30.174 61.946-36.191 113.765-10.725 139.223 47.97 47.98 189.47-15.75 316.05-142.32 126.57-126.58 190.3-268.08 142.32-316.05z" fill="#fee97d"/><path d="m145.614 202.005c0-11.704 1.015-23.169 2.949-34.314-29.193 29.046-59.843 57.097-91.971 84.138.16 25.22 5 49.31 13.68 71.43l.07-.03c28.384-22.635 55.673-46.021 81.892-70.14-4.31-16.295-6.62-33.416-6.62-51.084z" fill="#fdb97e"/></g></svg>