<?xml version="1.0" encoding="iso-8859-1"?>
<!-- Generator: Adobe Illustrator 16.0.0, SVG Export Plug-In . SVG Version: 6.00 Build 0)  -->
<!DOCTYPE svg PUBLIC "-//W3C//DTD SVG 1.1//EN" "http://www.w3.org/Graphics/SVG/1.1/DTD/svg11.dtd">
<svg version="1.1" id="Capa_1" xmlns="http://www.w3.org/2000/svg" xmlns:xlink="http://www.w3.org/1999/xlink" x="0px" y="0px"
fill="#f1f1f1"
	 width="319.313px" height="319.313px" viewBox="0 0 319.313 319.313" style="enable-background:new 0 0 319.313 319.313;"
	 xml:space="preserve">
<g>
	<path d="M203.018,79.903l57.017,20.487l1.791-4.989c10.228-28.443-4.603-59.896-33.036-70.114L167.444,3.246
		C161.458,1.092,155.224,0,148.914,0c-23.056,0-43.783,14.581-51.582,36.285l-1.792,4.989l61.05,21.935
		c1.533,0.554,2.327,2.245,1.781,3.772c-0.539,1.488-2.242,2.327-3.77,1.781L93.547,46.82l-9.724,27.063l61.05,21.937
		c1.533,0.551,2.328,2.242,1.781,3.77c-0.541,1.489-2.252,2.328-3.77,1.782L81.834,79.43l-9.724,27.063l61.05,21.937
		c1.533,0.552,2.328,2.242,1.781,3.775c-0.536,1.488-2.242,2.333-3.77,1.776l-61.058-21.942l-9.719,27.066l61.047,21.935
		c0.743,0.265,1.336,0.808,1.675,1.522c0.334,0.709,0.373,1.512,0.106,2.252c-0.536,1.486-2.252,2.326-3.77,1.776l-61.189-21.988
		l-1.621,5.331c-7.801,25.616,4.06,52.61,27.237,64.555v44.066l0.142,0.052l-0.142,60.708h37.911l0.632-46.354l0.171,0.067
		l43.639-30.499c1.362,0.099,2.724,0.171,4.091,0.171c22.178,0,42.025-13.246,50.564-33.746l2.144-5.142l-57.151-20.547
		c-0.74-0.259-1.33-0.798-1.672-1.512c-0.332-0.715-0.368-1.518-0.109-2.258c0.528-1.486,2.253-2.33,3.771-1.781l57.016,20.489
		l9.725-27.061l-57.017-20.49c-0.74-0.264-1.33-0.805-1.667-1.517c-0.331-0.709-0.373-1.515-0.108-2.258
		c0.533-1.486,2.252-2.327,3.77-1.776l57.017,20.485l9.724-27.062l-57.016-20.487c-1.527-0.551-2.325-2.245-1.776-3.775
		c0.533-1.486,2.247-2.322,3.77-1.779l57.012,20.49l9.724-27.063l-57.011-20.487c-0.74-0.267-1.331-0.802-1.673-1.517
		c-0.331-0.718-0.367-1.518-0.108-2.255C199.776,80.193,201.495,79.357,203.018,79.903z M241.921,119.438l-47.033-16.907
		c-6.865-2.459-14.882,1.336-17.336,8.176c-2.532,7.037,1.14,14.81,8.171,17.339l47.038,16.904l-2.553,7.102l-47.038-16.904
		c-6.866-2.482-14.877,1.331-17.331,8.171c-1.228,3.407-1.051,7.089,0.492,10.367c1.548,3.275,4.271,5.753,7.679,6.97l47.038,16.906
		l-2.553,7.1l-47.038-16.901c-6.866-2.486-14.882,1.336-17.336,8.171c-1.225,3.407-1.051,7.083,0.492,10.356
		c1.542,3.277,4.275,5.758,7.679,6.975l46.328,16.652c-7.803,13.645-22.302,22.199-38.302,22.199c-5.075,0-10.09-0.881-14.908-2.615
		l-61.345-22.043c-20.386-7.327-32.159-28.133-28.578-48.972l50.373,18.1c6.882,2.485,14.882-1.336,17.339-8.171
		c1.225-3.407,1.048-7.084-0.495-10.364c-1.543-3.278-4.27-5.753-7.677-6.978L73.953,132.72l2.55-7.102l51.074,18.354
		c6.887,2.485,14.887-1.344,17.339-8.171c2.526-7.032-1.142-14.809-8.171-17.339l-51.074-18.354l2.55-7.1l51.074,18.352
		c6.882,2.488,14.882-1.336,17.339-8.171c2.529-7.029-1.137-14.81-8.171-17.339L97.389,67.499l2.55-7.099l51.069,18.351
		c6.887,2.478,14.882-1.325,17.342-8.171c2.532-7.029-1.14-14.81-8.169-17.339L109.41,34.996
		c7.423-14.778,22.701-24.387,39.509-24.387c5.08,0,10.11,0.881,14.941,2.62l61.341,22.043
		c11.117,3.993,20.003,12.073,25.041,22.758c4.272,9.062,5.328,19.082,3.112,28.695l-46.743-16.793
		c-6.871-2.475-14.877,1.331-17.336,8.171c-1.228,3.41-1.052,7.084,0.491,10.362s4.272,5.753,7.68,6.972l47.033,16.904
		L241.921,119.438z M122.252,260.335l-27.778-9.673v-27.978l57.446,16.906L122.252,260.335z M111.859,269.034l-0.541,39.695H94.5
		l0.106-46.147v-0.637l17.264,6.007L111.859,269.034z"/>
</g>
<g>
</g>
<g>
</g>
<g>
</g>
<g>
</g>
<g>
</g>
<g>
</g>
<g>
</g>
<g>
</g>
<g>
</g>
<g>
</g>
<g>
</g>
<g>
</g>
<g>
</g>
<g>
</g>
<g>
</g>
</svg>
